<mxfile host="65bd71144e">
    <diagram id="co5ghKeVUiiam8XSEQDd" name="Page-1">
        <mxGraphModel dx="1109" dy="873" grid="1" gridSize="10" guides="1" tooltips="1" connect="1" arrows="1" fold="1" page="1" pageScale="1" pageWidth="827" pageHeight="1169" math="0" shadow="0">
            <root>
                <mxCell id="0"/>
                <mxCell id="1" parent="0"/>
                <mxCell id="32" value="" style="verticalLabelPosition=bottom;verticalAlign=top;html=1;shape=mxgraph.basic.polygon;polyCoords=[[0.42,0],[0.58,0.6],[1,0.6],[1,1],[0.58,1],[0.42,0.4],[0,0.4],[0,0]];polyline=0;rounded=1;strokeColor=default;fontFamily=Helvetica;fontSize=16;fontColor=#FFFFFF;fillColor=none;dashed=1;dashPattern=8 8;" vertex="1" parent="1">
                    <mxGeometry x="344" y="150" width="450" height="300" as="geometry"/>
                </mxCell>
                <mxCell id="33" value="" style="rounded=0;whiteSpace=wrap;html=1;strokeColor=default;fontFamily=Helvetica;fontSize=16;fontColor=#FFFFFF;fillColor=none;dashed=1;dashPattern=8 8;" vertex="1" parent="1">
                    <mxGeometry x="44" y="310" width="200" height="240" as="geometry"/>
                </mxCell>
                <mxCell id="34" style="edgeStyle=orthogonalEdgeStyle;jumpSize=12;html=1;entryX=0.5;entryY=0;entryDx=0;entryDy=0;fontFamily=Helvetica;fontSize=16;fontColor=#FFFFFF;startArrow=none;startFill=0;endArrow=classic;endFill=1;fillColor=#FF0000;" edge="1" parent="1" source="35" target="52">
                    <mxGeometry relative="1" as="geometry">
                        <Array as="points">
                            <mxPoint x="704" y="130"/>
                            <mxPoint x="438" y="130"/>
                        </Array>
                    </mxGeometry>
                </mxCell>
                <mxCell id="35" value="&lt;b&gt;&lt;font style=&quot;font-size: 16px;&quot;&gt;Client&lt;/font&gt;&lt;/b&gt;&lt;br&gt;&lt;i&gt;&amp;lt;&amp;lt;Virtual assistant client&amp;gt;&amp;gt;&lt;/i&gt;" style="rounded=0;whiteSpace=wrap;html=1;strokeColor=default;fontFamily=Helvetica;fontSize=12;fontColor=#FFFFFF;fillColor=#2A2839;" vertex="1" parent="1">
                    <mxGeometry x="624" y="170" width="160" height="80" as="geometry"/>
                </mxCell>
                <mxCell id="36" style="edgeStyle=orthogonalEdgeStyle;jumpSize=12;html=1;entryX=0;entryY=0.5;entryDx=0;entryDy=0;fontFamily=Helvetica;fontSize=16;fontColor=#FFFFFF;fillColor=#FF0000;startArrow=classic;startFill=1;endArrow=classic;endFill=1;" edge="1" parent="1" source="37" target="40">
                    <mxGeometry relative="1" as="geometry"/>
                </mxCell>
                <mxCell id="37" value="&lt;b&gt;&lt;font style=&quot;font-size: 16px;&quot;&gt;Shell&lt;/font&gt;&lt;/b&gt;" style="rounded=0;whiteSpace=wrap;html=1;strokeColor=default;fontFamily=Helvetica;fontSize=12;fontColor=#FFFFFF;fillColor=#2A2839;" vertex="1" parent="1">
                    <mxGeometry x="64" y="170" width="160" height="80" as="geometry"/>
                </mxCell>
                <mxCell id="38" style="edgeStyle=orthogonalEdgeStyle;jumpSize=12;html=1;exitX=0.25;exitY=1;exitDx=0;exitDy=0;entryX=0.25;entryY=0;entryDx=0;entryDy=0;fontFamily=Helvetica;fontSize=16;fontColor=#FFFFFF;startArrow=none;startFill=0;endArrow=classic;endFill=1;fillColor=#FF0000;" edge="1" parent="1" source="40" target="42">
                    <mxGeometry relative="1" as="geometry"/>
                </mxCell>
                <mxCell id="39" style="edgeStyle=orthogonalEdgeStyle;jumpSize=12;html=1;entryX=0;entryY=0.5;entryDx=0;entryDy=0;fontFamily=Helvetica;fontSize=16;fontColor=#FFFFFF;startArrow=none;startFill=0;endArrow=classic;endFill=1;fillColor=#FF0000;" edge="1" parent="1" source="40" target="55">
                    <mxGeometry relative="1" as="geometry"/>
                </mxCell>
                <mxCell id="40" value="&lt;b&gt;&lt;font style=&quot;font-size: 16px;&quot;&gt;API&lt;/font&gt;&lt;/b&gt;" style="rounded=0;whiteSpace=wrap;html=1;strokeColor=default;fontFamily=Helvetica;fontSize=12;fontColor=#FFFFFF;fillColor=#2A2839;" vertex="1" parent="1">
                    <mxGeometry x="358" y="350" width="160" height="80" as="geometry"/>
                </mxCell>
                <mxCell id="41" style="edgeStyle=orthogonalEdgeStyle;jumpSize=12;html=1;exitX=0.75;exitY=0;exitDx=0;exitDy=0;entryX=0.75;entryY=1;entryDx=0;entryDy=0;fontFamily=Helvetica;fontSize=16;fontColor=#FFFFFF;startArrow=none;startFill=0;endArrow=classic;endFill=1;fillColor=#FF0000;" edge="1" parent="1" source="42" target="40">
                    <mxGeometry relative="1" as="geometry"/>
                </mxCell>
                <mxCell id="42" value="&lt;b&gt;&lt;font style=&quot;font-size: 16px;&quot;&gt;LLM&lt;/font&gt;&lt;/b&gt;" style="rounded=0;whiteSpace=wrap;html=1;strokeColor=default;fontFamily=Helvetica;fontSize=12;fontColor=#FFFFFF;fillColor=#2A2839;" vertex="1" parent="1">
                    <mxGeometry x="358" y="530" width="160" height="80" as="geometry"/>
                </mxCell>
                <mxCell id="43" value="Answer" style="text;html=1;strokeColor=none;fillColor=none;align=center;verticalAlign=middle;whiteSpace=wrap;rounded=0;fontFamily=Helvetica;fontSize=16;fontColor=#FFFFFF;" vertex="1" parent="1">
                    <mxGeometry x="624" y="290" width="60" height="30" as="geometry"/>
                </mxCell>
                <mxCell id="44" value="Send promt" style="text;html=1;strokeColor=none;fillColor=none;align=center;verticalAlign=middle;whiteSpace=wrap;rounded=0;fontFamily=Helvetica;fontSize=16;fontColor=#FFFFFF;" vertex="1" parent="1">
                    <mxGeometry x="324" y="465" width="60" height="30" as="geometry"/>
                </mxCell>
                <mxCell id="45" value="Create answer" style="text;html=1;strokeColor=none;fillColor=none;align=center;verticalAlign=middle;whiteSpace=wrap;rounded=0;fontFamily=Helvetica;fontSize=16;fontColor=#FFFFFF;" vertex="1" parent="1">
                    <mxGeometry x="484" y="460" width="70" height="40" as="geometry"/>
                </mxCell>
                <mxCell id="46" style="edgeStyle=orthogonalEdgeStyle;jumpSize=12;html=1;entryX=0.5;entryY=0;entryDx=0;entryDy=0;fontFamily=Helvetica;fontSize=16;fontColor=#FFFFFF;startArrow=none;startFill=0;endArrow=classic;endFill=1;fillColor=#FF0000;dashed=1;dashPattern=8 8;" edge="1" parent="1" source="37" target="48">
                    <mxGeometry relative="1" as="geometry">
                        <mxPoint x="144" y="390" as="sourcePoint"/>
                    </mxGeometry>
                </mxCell>
                <mxCell id="47" style="edgeStyle=orthogonalEdgeStyle;jumpSize=12;html=1;entryX=0.5;entryY=0;entryDx=0;entryDy=0;fontFamily=Helvetica;fontSize=16;fontColor=#FFFFFF;startArrow=none;startFill=0;endArrow=classic;endFill=1;fillColor=#FF0000;dashed=1;dashPattern=8 8;" edge="1" parent="1" source="48" target="50">
                    <mxGeometry relative="1" as="geometry"/>
                </mxCell>
                <mxCell id="48" value="&lt;font style=&quot;font-size: 16px;&quot;&gt;Preprocess data&lt;br&gt;&lt;/font&gt;" style="rounded=0;whiteSpace=wrap;html=1;strokeColor=default;fontFamily=Helvetica;fontSize=12;fontColor=#FFFFFF;fillColor=#2A2839;" vertex="1" parent="1">
                    <mxGeometry x="64" y="330" width="160" height="80" as="geometry"/>
                </mxCell>
                <mxCell id="49" style="edgeStyle=orthogonalEdgeStyle;jumpSize=12;html=1;entryX=0;entryY=0.5;entryDx=0;entryDy=0;fontFamily=Helvetica;fontSize=16;fontColor=#FFFFFF;startArrow=none;startFill=0;endArrow=classic;endFill=1;fillColor=#FF0000;dashed=1;dashPattern=8 8;exitX=0.5;exitY=1;exitDx=0;exitDy=0;" edge="1" parent="1" source="50" target="42">
                    <mxGeometry relative="1" as="geometry"/>
                </mxCell>
                <mxCell id="50" value="&lt;font style=&quot;font-size: 16px;&quot;&gt;Re feed &lt;br&gt;or&lt;br&gt;Fine tune&lt;/font&gt;" style="rounded=0;whiteSpace=wrap;html=1;strokeColor=default;fontFamily=Helvetica;fontSize=12;fontColor=#FFFFFF;fillColor=#2A2839;" vertex="1" parent="1">
                    <mxGeometry x="64" y="450" width="160" height="80" as="geometry"/>
                </mxCell>
                <mxCell id="51" style="edgeStyle=orthogonalEdgeStyle;jumpSize=12;html=1;entryX=0.5;entryY=0;entryDx=0;entryDy=0;fontFamily=Helvetica;fontSize=16;fontColor=#FFFFFF;startArrow=none;startFill=0;endArrow=classic;endFill=1;fillColor=#FF0000;" edge="1" parent="1" source="52" target="40">
                    <mxGeometry relative="1" as="geometry"/>
                </mxCell>
                <mxCell id="52" value="&lt;font style=&quot;font-size: 16px;&quot;&gt;Analize promt&lt;/font&gt;" style="rounded=0;whiteSpace=wrap;html=1;strokeColor=default;fontFamily=Helvetica;fontSize=12;fontColor=#FFFFFF;fillColor=#2A2839;dashed=1;dashPattern=8 8;" vertex="1" parent="1">
                    <mxGeometry x="358" y="170" width="160" height="80" as="geometry"/>
                </mxCell>
                <mxCell id="53" value="Promt" style="text;html=1;strokeColor=none;fillColor=none;align=center;verticalAlign=middle;whiteSpace=wrap;rounded=0;fontFamily=Helvetica;fontSize=16;fontColor=#FFFFFF;" vertex="1" parent="1">
                    <mxGeometry x="544" y="100" width="60" height="30" as="geometry"/>
                </mxCell>
                <mxCell id="54" style="edgeStyle=orthogonalEdgeStyle;jumpSize=12;html=1;exitX=0.5;exitY=0;exitDx=0;exitDy=0;entryX=0.5;entryY=1;entryDx=0;entryDy=0;fontFamily=Helvetica;fontSize=16;fontColor=#FFFFFF;startArrow=none;startFill=0;endArrow=classic;endFill=1;fillColor=#FF0000;" edge="1" parent="1" source="55" target="35">
                    <mxGeometry relative="1" as="geometry"/>
                </mxCell>
                <mxCell id="55" value="&lt;font style=&quot;font-size: 16px;&quot;&gt;Analize answer&lt;/font&gt;" style="rounded=0;whiteSpace=wrap;html=1;strokeColor=default;fontFamily=Helvetica;fontSize=12;fontColor=#FFFFFF;fillColor=#2A2839;dashed=1;dashPattern=8 8;" vertex="1" parent="1">
                    <mxGeometry x="624" y="350" width="160" height="80" as="geometry"/>
                </mxCell>
                <mxCell id="56" value="Metrics" style="text;html=1;strokeColor=none;fillColor=none;align=center;verticalAlign=middle;whiteSpace=wrap;rounded=0;fontFamily=Helvetica;fontSize=16;fontColor=#FFFFFF;" vertex="1" parent="1">
                    <mxGeometry x="294" y="400" width="60" height="30" as="geometry"/>
                </mxCell>
                <mxCell id="57" value="Actions" style="text;html=1;strokeColor=none;fillColor=none;align=center;verticalAlign=middle;whiteSpace=wrap;rounded=0;fontFamily=Helvetica;fontSize=16;fontColor=#FFFFFF;" vertex="1" parent="1">
                    <mxGeometry x="234" y="170" width="60" height="30" as="geometry"/>
                </mxCell>
                <mxCell id="58" value="OnDevelop" style="text;html=1;strokeColor=none;fillColor=none;align=center;verticalAlign=middle;whiteSpace=wrap;rounded=0;fontFamily=Helvetica;fontSize=16;fontColor=#FFFFFF;" vertex="1" parent="1">
                    <mxGeometry x="344" y="120" width="86" height="30" as="geometry"/>
                </mxCell>
                <mxCell id="59" value="OnUpdate" style="text;html=1;strokeColor=none;fillColor=none;align=center;verticalAlign=middle;whiteSpace=wrap;rounded=0;fontFamily=Helvetica;fontSize=16;fontColor=#FFFFFF;" vertex="1" parent="1">
                    <mxGeometry x="44" y="280" width="80" height="30" as="geometry"/>
                </mxCell>
                <mxCell id="60" value="" style="rounded=0;whiteSpace=wrap;html=1;strokeColor=default;fontFamily=Helvetica;fontSize=16;fontColor=#FFFFFF;fillColor=none;" vertex="1" parent="1">
                    <mxGeometry x="604" y="150" width="200" height="320" as="geometry"/>
                </mxCell>
                <mxCell id="61" value="OnQuery" style="text;html=1;strokeColor=none;fillColor=none;align=center;verticalAlign=middle;whiteSpace=wrap;rounded=0;fontFamily=Helvetica;fontSize=16;fontColor=#FFFFFF;" vertex="1" parent="1">
                    <mxGeometry x="714" y="120" width="60" height="30" as="geometry"/>
                </mxCell>
            </root>
        </mxGraphModel>
    </diagram>
</mxfile>